<svg aria-roledescription="er" viewBox="0 0 711.2088623046875 386" style="max-width: 711.209px; background-color: white;" xmlns:xlink="http://www.w3.org/1999/xlink" xmlns="http://www.w3.org/2000/svg" width="100%" id="mermaid-0"><style>#mermaid-0{font-family:"trebuchet ms",verdana,arial,sans-serif;font-size:16px;fill:#000000;}#mermaid-0 .error-icon{fill:#552222;}#mermaid-0 .error-text{fill:#552222;stroke:#552222;}#mermaid-0 .edge-thickness-normal{stroke-width:2px;}#mermaid-0 .edge-thickness-thick{stroke-width:3.5px;}#mermaid-0 .edge-pattern-solid{stroke-dasharray:0;}#mermaid-0 .edge-pattern-dashed{stroke-dasharray:3;}#mermaid-0 .edge-pattern-dotted{stroke-dasharray:2;}#mermaid-0 .marker{fill:#000000;stroke:#000000;}#mermaid-0 .marker.cross{stroke:#000000;}#mermaid-0 svg{font-family:"trebuchet ms",verdana,arial,sans-serif;font-size:16px;}#mermaid-0 .entityBox{fill:#cde498;stroke:#13540c;}#mermaid-0 .attributeBoxOdd{fill:#ffffff;stroke:#13540c;}#mermaid-0 .attributeBoxEven{fill:#f2f2f2;stroke:#13540c;}#mermaid-0 .relationshipLabelBox{fill:hsl(78.1578947368, 58.4615384615%, 84.5098039216%);opacity:0.7;background-color:hsl(78.1578947368, 58.4615384615%, 84.5098039216%);}#mermaid-0 .relationshipLabelBox rect{opacity:0.5;}#mermaid-0 .relationshipLine{stroke:#000000;}#mermaid-0 .entityTitleText{text-anchor:middle;font-size:18px;fill:#000000;}#mermaid-0 :root{--mermaid-font-family:"trebuchet ms",verdana,arial,sans-serif;}</style><g/><defs><marker orient="auto" markerHeight="18" markerWidth="18" refY="9" refX="0" id="ONLY_ONE_START"><path d="M9,0 L9,18 M15,0 L15,18" fill="none" stroke="gray"/></marker></defs><defs><marker orient="auto" markerHeight="18" markerWidth="18" refY="9" refX="18" id="ONLY_ONE_END"><path d="M3,0 L3,18 M9,0 L9,18" fill="none" stroke="gray"/></marker></defs><defs><marker orient="auto" markerHeight="18" markerWidth="30" refY="9" refX="0" id="ZERO_OR_ONE_START"><circle r="6" cy="9" cx="21" fill="white" stroke="gray"/><path d="M9,0 L9,18" fill="none" stroke="gray"/></marker></defs><defs><marker orient="auto" markerHeight="18" markerWidth="30" refY="9" refX="30" id="ZERO_OR_ONE_END"><circle r="6" cy="9" cx="9" fill="white" stroke="gray"/><path d="M21,0 L21,18" fill="none" stroke="gray"/></marker></defs><defs><marker orient="auto" markerHeight="36" markerWidth="45" refY="18" refX="18" id="ONE_OR_MORE_START"><path d="M0,18 Q 18,0 36,18 Q 18,36 0,18 M42,9 L42,27" fill="none" stroke="gray"/></marker></defs><defs><marker orient="auto" markerHeight="36" markerWidth="45" refY="18" refX="27" id="ONE_OR_MORE_END"><path d="M3,9 L3,27 M9,18 Q27,0 45,18 Q27,36 9,18" fill="none" stroke="gray"/></marker></defs><defs><marker orient="auto" markerHeight="36" markerWidth="57" refY="18" refX="18" id="ZERO_OR_MORE_START"><circle r="6" cy="18" cx="48" fill="white" stroke="gray"/><path d="M0,18 Q18,0 36,18 Q18,36 0,18" fill="none" stroke="gray"/></marker></defs><defs><marker orient="auto" markerHeight="36" markerWidth="57" refY="18" refX="39" id="ZERO_OR_MORE_END"><circle r="6" cy="18" cx="9" fill="white" stroke="gray"/><path d="M21,18 Q39,0 57,18 Q39,36 21,18" fill="none" stroke="gray"/></marker></defs><path style="stroke: gray; fill: none;" marker-start="url(#ZERO_OR_MORE_START)" marker-end="url(#ONLY_ONE_END)" d="M81.146484375,88L81.146484375,96.33333333333333C81.146484375,104.66666666666667,81.146484375,121.33333333333333,86.78197598171464,145.33333333333334C92.41746758842926,169.33333333333334,103.68845080185851,200.66666666666666,109.32394240857315,216.33333333333334L114.95943401528777,232" class="er relationshipLine"/><path style="stroke: gray; fill: none;" marker-start="url(#ZERO_OR_MORE_START)" marker-end="url(#ONLY_ONE_END)" d="M362.05696941557386,77L368.1085567171611,87.16666666666667C374.16014401874844,97.33333333333333,386.263318621923,117.66666666666667,392.31490592351037,145.33333333333334C398.36649322509766,173,398.36649322509766,208,398.36649322509766,225.5L398.36649322509766,243" class="er relationshipLine"/><path style="stroke: gray; fill: none;" marker-start="url(#ZERO_OR_MORE_START)" marker-end="url(#ONLY_ONE_END)" d="M317.79654521033876,77L304.28374210236564,87.16666666666667C290.7709389943925,97.33333333333333,263.74533277844625,117.66666666666667,238.33338726564702,143.5C212.92144175284773,169.33333333333334,189.12315694319545,200.66666666666666,177.2240145383693,216.33333333333334L165.32487213354318,232" class="er relationshipLine"/><path style="stroke: gray; fill: none;" marker-start="url(#ZERO_OR_MORE_START)" marker-end="url(#ONLY_ONE_END)" d="M621.660026550293,88L621.660026550293,96.33333333333333C621.660026550293,104.66666666666667,621.660026550293,121.33333333333333,621.660026550293,138C621.660026550293,154.66666666666666,621.660026550293,171.33333333333334,621.660026550293,179.66666666666666L621.660026550293,188" class="er relationshipLine"/><g transform="translate(61.7874755859375,232 )" id="entity-habits-19105d98-62a4-43a6-80b3-c46e2d4964b7"><rect height="90" width="138.718017578125" y="0" x="0" class="er entityBox"/><text style="dominant-baseline: middle; text-anchor: middle; font-size: 12px;" transform="translate(69.3590087890625,12)" y="0" x="0" id="text-entity-habits-19105d98-62a4-43a6-80b3-c46e2d4964b7" class="er entityLabel">habits</text><rect height="22" width="54.095550537109375" y="24" x="0" class="er attributeBoxOdd"/><text style="dominant-baseline: middle; font-size: 10.2px;" transform="translate(5,35)" y="0" x="0" id="text-entity-habits-19105d98-62a4-43a6-80b3-c46e2d4964b7-attr-1-type" class="er entityLabel">String</text><rect height="22" width="61.934783935546875" y="24" x="54.095550537109375" class="er attributeBoxOdd"/><text style="dominant-baseline: middle; font-size: 10.2px;" transform="translate(59.095550537109375,35)" y="0" x="0" id="text-entity-habits-19105d98-62a4-43a6-80b3-c46e2d4964b7-attr-1-name" class="er entityLabel">id</text><rect height="22" width="22.68768310546875" y="24" x="116.03033447265625" class="er attributeBoxOdd"/><text style="dominant-baseline: middle; font-size: 10.2px;" transform="translate(121.03033447265625,35)" y="0" x="0" id="text-entity-habits-19105d98-62a4-43a6-80b3-c46e2d4964b7-attr-1-key" class="er entityLabel">PK</text><rect height="22" width="54.095550537109375" y="46" x="0" class="er attributeBoxEven"/><text style="dominant-baseline: middle; font-size: 10.2px;" transform="translate(5,57)" y="0" x="0" id="text-entity-habits-19105d98-62a4-43a6-80b3-c46e2d4964b7-attr-2-type" class="er entityLabel">String</text><rect height="22" width="61.934783935546875" y="46" x="54.095550537109375" class="er attributeBoxEven"/><text style="dominant-baseline: middle; font-size: 10.2px;" transform="translate(59.095550537109375,57)" y="0" x="0" id="text-entity-habits-19105d98-62a4-43a6-80b3-c46e2d4964b7-attr-2-name" class="er entityLabel">title</text><rect height="22" width="22.68768310546875" y="46" x="116.03033447265625" class="er attributeBoxEven"/><text style="dominant-baseline: middle; font-size: 10.2px;" transform="translate(121.03033447265625,57)" y="0" x="0" id="text-entity-habits-19105d98-62a4-43a6-80b3-c46e2d4964b7-attr-2-key" class="er entityLabel"/><rect height="22" width="54.095550537109375" y="68" x="0" class="er attributeBoxOdd"/><text style="dominant-baseline: middle; font-size: 10.2px;" transform="translate(5,79)" y="0" x="0" id="text-entity-habits-19105d98-62a4-43a6-80b3-c46e2d4964b7-attr-3-type" class="er entityLabel">DateTime</text><rect height="22" width="61.934783935546875" y="68" x="54.095550537109375" class="er attributeBoxOdd"/><text style="dominant-baseline: middle; font-size: 10.2px;" transform="translate(59.095550537109375,79)" y="0" x="0" id="text-entity-habits-19105d98-62a4-43a6-80b3-c46e2d4964b7-attr-3-name" class="er entityLabel">created_ad</text><rect height="22" width="22.68768310546875" y="68" x="116.03033447265625" class="er attributeBoxOdd"/><text style="dominant-baseline: middle; font-size: 10.2px;" transform="translate(121.03033447265625,79)" y="0" x="0" id="text-entity-habits-19105d98-62a4-43a6-80b3-c46e2d4964b7-attr-3-key" class="er entityLabel"/></g><g transform="translate(20,20 )" id="entity-habitweekdays-71073cf7-c9b4-4953-9f37-0c64599d0f3a"><rect height="68" width="122.29296875" y="0" x="0" class="er entityBox"/><text style="dominant-baseline: middle; text-anchor: middle; font-size: 12px;" transform="translate(61.146484375,12)" y="0" x="0" id="text-entity-habitweekdays-71073cf7-c9b4-4953-9f37-0c64599d0f3a" class="er entityLabel">habit_week_days</text><rect height="22" width="39.0484364827474" y="24" x="0" class="er attributeBoxOdd"/><text style="dominant-baseline: middle; font-size: 10.2px;" transform="translate(5,35)" y="0" x="0" id="text-entity-habitweekdays-71073cf7-c9b4-4953-9f37-0c64599d0f3a-attr-1-type" class="er entityLabel">String</text><rect height="22" width="58.90446980794271" y="24" x="39.0484364827474" class="er attributeBoxOdd"/><text style="dominant-baseline: middle; font-size: 10.2px;" transform="translate(44.0484364827474,35)" y="0" x="0" id="text-entity-habitweekdays-71073cf7-c9b4-4953-9f37-0c64599d0f3a-attr-1-name" class="er entityLabel">id</text><rect height="22" width="24.340062459309895" y="24" x="97.95290629069011" class="er attributeBoxOdd"/><text style="dominant-baseline: middle; font-size: 10.2px;" transform="translate(102.95290629069011,35)" y="0" x="0" id="text-entity-habitweekdays-71073cf7-c9b4-4953-9f37-0c64599d0f3a-attr-1-key" class="er entityLabel">PK</text><rect height="22" width="39.0484364827474" y="46" x="0" class="er attributeBoxEven"/><text style="dominant-baseline: middle; font-size: 10.2px;" transform="translate(5,57)" y="0" x="0" id="text-entity-habitweekdays-71073cf7-c9b4-4953-9f37-0c64599d0f3a-attr-2-type" class="er entityLabel">Int</text><rect height="22" width="58.90446980794271" y="46" x="39.0484364827474" class="er attributeBoxEven"/><text style="dominant-baseline: middle; font-size: 10.2px;" transform="translate(44.0484364827474,57)" y="0" x="0" id="text-entity-habitweekdays-71073cf7-c9b4-4953-9f37-0c64599d0f3a-attr-2-name" class="er entityLabel">week_day</text><rect height="22" width="24.340062459309895" y="46" x="97.95290629069011" class="er attributeBoxEven"/><text style="dominant-baseline: middle; font-size: 10.2px;" transform="translate(102.95290629069011,57)" y="0" x="0" id="text-entity-habitweekdays-71073cf7-c9b4-4953-9f37-0c64599d0f3a-attr-2-key" class="er entityLabel"/></g><g transform="translate(344.43196868896484,243 )" id="entity-days-a428f47f-0b0d-43df-a524-05a3e1aead9c"><rect height="68" width="107.86904907226562" y="0" x="0" class="er entityBox"/><text style="dominant-baseline: middle; text-anchor: middle; font-size: 12px;" transform="translate(53.93452453613281,12)" y="0" x="0" id="text-entity-days-a428f47f-0b0d-43df-a524-05a3e1aead9c" class="er entityLabel">days</text><rect height="22" width="54.095550537109375" y="24" x="0" class="er attributeBoxOdd"/><text style="dominant-baseline: middle; font-size: 10.2px;" transform="translate(5,35)" y="0" x="0" id="text-entity-days-a428f47f-0b0d-43df-a524-05a3e1aead9c-attr-1-type" class="er entityLabel">String</text><rect height="22" width="31.0858154296875" y="24" x="54.095550537109375" class="er attributeBoxOdd"/><text style="dominant-baseline: middle; font-size: 10.2px;" transform="translate(59.095550537109375,35)" y="0" x="0" id="text-entity-days-a428f47f-0b0d-43df-a524-05a3e1aead9c-attr-1-name" class="er entityLabel">id</text><rect height="22" width="22.68768310546875" y="24" x="85.18136596679688" class="er attributeBoxOdd"/><text style="dominant-baseline: middle; font-size: 10.2px;" transform="translate(90.18136596679688,35)" y="0" x="0" id="text-entity-days-a428f47f-0b0d-43df-a524-05a3e1aead9c-attr-1-key" class="er entityLabel">PK</text><rect height="22" width="54.095550537109375" y="46" x="0" class="er attributeBoxEven"/><text style="dominant-baseline: middle; font-size: 10.2px;" transform="translate(5,57)" y="0" x="0" id="text-entity-days-a428f47f-0b0d-43df-a524-05a3e1aead9c-attr-2-type" class="er entityLabel">DateTime</text><rect height="22" width="31.0858154296875" y="46" x="54.095550537109375" class="er attributeBoxEven"/><text style="dominant-baseline: middle; font-size: 10.2px;" transform="translate(59.095550537109375,57)" y="0" x="0" id="text-entity-days-a428f47f-0b0d-43df-a524-05a3e1aead9c-attr-2-name" class="er entityLabel">date</text><rect height="22" width="22.68768310546875" y="46" x="85.18136596679688" class="er attributeBoxEven"/><text style="dominant-baseline: middle; font-size: 10.2px;" transform="translate(90.18136596679688,57)" y="0" x="0" id="text-entity-days-a428f47f-0b0d-43df-a524-05a3e1aead9c-attr-2-key" class="er entityLabel"/></g><g transform="translate(298.36649322509766,31 )" id="entity-dayhabits-33f3d2e6-d6df-4551-aa67-b62766d705b4"><rect height="46" width="100" y="0" x="0" class="er entityBox"/><text style="dominant-baseline: middle; text-anchor: middle; font-size: 12px;" transform="translate(50,12)" y="0" x="0" id="text-entity-dayhabits-33f3d2e6-d6df-4551-aa67-b62766d705b4" class="er entityLabel">day_habits</text><rect height="22" width="44.39861551920573" y="24" x="0" class="er attributeBoxOdd"/><text style="dominant-baseline: middle; font-size: 10.2px;" transform="translate(5,35)" y="0" x="0" id="text-entity-dayhabits-33f3d2e6-d6df-4551-aa67-b62766d705b4-attr-1-type" class="er entityLabel">String</text><rect height="22" width="25.911142985026043" y="24" x="44.39861551920573" class="er attributeBoxOdd"/><text style="dominant-baseline: middle; font-size: 10.2px;" transform="translate(49.39861551920573,35)" y="0" x="0" id="text-entity-dayhabits-33f3d2e6-d6df-4551-aa67-b62766d705b4-attr-1-name" class="er entityLabel">id</text><rect height="22" width="29.69024149576823" y="24" x="70.30975850423177" class="er attributeBoxOdd"/><text style="dominant-baseline: middle; font-size: 10.2px;" transform="translate(75.30975850423177,35)" y="0" x="0" id="text-entity-dayhabits-33f3d2e6-d6df-4551-aa67-b62766d705b4-attr-1-key" class="er entityLabel">PK</text></g><g transform="translate(552.3010177612305,188 )" id="entity-exercises-2d0afcbb-1b45-4118-9add-6ddf9c27b4f9"><rect height="178" width="138.718017578125" y="0" x="0" class="er entityBox"/><text style="dominant-baseline: middle; text-anchor: middle; font-size: 12px;" transform="translate(69.3590087890625,12)" y="0" x="0" id="text-entity-exercises-2d0afcbb-1b45-4118-9add-6ddf9c27b4f9" class="er entityLabel">exercises</text><rect height="22" width="54.095550537109375" y="24" x="0" class="er attributeBoxOdd"/><text style="dominant-baseline: middle; font-size: 10.2px;" transform="translate(5,35)" y="0" x="0" id="text-entity-exercises-2d0afcbb-1b45-4118-9add-6ddf9c27b4f9-attr-1-type" class="er entityLabel">String</text><rect height="22" width="61.934783935546875" y="24" x="54.095550537109375" class="er attributeBoxOdd"/><text style="dominant-baseline: middle; font-size: 10.2px;" transform="translate(59.095550537109375,35)" y="0" x="0" id="text-entity-exercises-2d0afcbb-1b45-4118-9add-6ddf9c27b4f9-attr-1-name" class="er entityLabel">id</text><rect height="22" width="22.68768310546875" y="24" x="116.03033447265625" class="er attributeBoxOdd"/><text style="dominant-baseline: middle; font-size: 10.2px;" transform="translate(121.03033447265625,35)" y="0" x="0" id="text-entity-exercises-2d0afcbb-1b45-4118-9add-6ddf9c27b4f9-attr-1-key" class="er entityLabel">PK</text><rect height="22" width="54.095550537109375" y="46" x="0" class="er attributeBoxEven"/><text style="dominant-baseline: middle; font-size: 10.2px;" transform="translate(5,57)" y="0" x="0" id="text-entity-exercises-2d0afcbb-1b45-4118-9add-6ddf9c27b4f9-attr-2-type" class="er entityLabel">String</text><rect height="22" width="61.934783935546875" y="46" x="54.095550537109375" class="er attributeBoxEven"/><text style="dominant-baseline: middle; font-size: 10.2px;" transform="translate(59.095550537109375,57)" y="0" x="0" id="text-entity-exercises-2d0afcbb-1b45-4118-9add-6ddf9c27b4f9-attr-2-name" class="er entityLabel">title</text><rect height="22" width="22.68768310546875" y="46" x="116.03033447265625" class="er attributeBoxEven"/><text style="dominant-baseline: middle; font-size: 10.2px;" transform="translate(121.03033447265625,57)" y="0" x="0" id="text-entity-exercises-2d0afcbb-1b45-4118-9add-6ddf9c27b4f9-attr-2-key" class="er entityLabel"/><rect height="22" width="54.095550537109375" y="68" x="0" class="er attributeBoxOdd"/><text style="dominant-baseline: middle; font-size: 10.2px;" transform="translate(5,79)" y="0" x="0" id="text-entity-exercises-2d0afcbb-1b45-4118-9add-6ddf9c27b4f9-attr-3-type" class="er entityLabel">Int</text><rect height="22" width="61.934783935546875" y="68" x="54.095550537109375" class="er attributeBoxOdd"/><text style="dominant-baseline: middle; font-size: 10.2px;" transform="translate(59.095550537109375,79)" y="0" x="0" id="text-entity-exercises-2d0afcbb-1b45-4118-9add-6ddf9c27b4f9-attr-3-name" class="er entityLabel">repetition</text><rect height="22" width="22.68768310546875" y="68" x="116.03033447265625" class="er attributeBoxOdd"/><text style="dominant-baseline: middle; font-size: 10.2px;" transform="translate(121.03033447265625,79)" y="0" x="0" id="text-entity-exercises-2d0afcbb-1b45-4118-9add-6ddf9c27b4f9-attr-3-key" class="er entityLabel"/><rect height="22" width="54.095550537109375" y="90" x="0" class="er attributeBoxEven"/><text style="dominant-baseline: middle; font-size: 10.2px;" transform="translate(5,101)" y="0" x="0" id="text-entity-exercises-2d0afcbb-1b45-4118-9add-6ddf9c27b4f9-attr-4-type" class="er entityLabel">Int</text><rect height="22" width="61.934783935546875" y="90" x="54.095550537109375" class="er attributeBoxEven"/><text style="dominant-baseline: middle; font-size: 10.2px;" transform="translate(59.095550537109375,101)" y="0" x="0" id="text-entity-exercises-2d0afcbb-1b45-4118-9add-6ddf9c27b4f9-attr-4-name" class="er entityLabel">charge</text><rect height="22" width="22.68768310546875" y="90" x="116.03033447265625" class="er attributeBoxEven"/><text style="dominant-baseline: middle; font-size: 10.2px;" transform="translate(121.03033447265625,101)" y="0" x="0" id="text-entity-exercises-2d0afcbb-1b45-4118-9add-6ddf9c27b4f9-attr-4-key" class="er entityLabel"/><rect height="22" width="54.095550537109375" y="112" x="0" class="er attributeBoxOdd"/><text style="dominant-baseline: middle; font-size: 10.2px;" transform="translate(5,123)" y="0" x="0" id="text-entity-exercises-2d0afcbb-1b45-4118-9add-6ddf9c27b4f9-attr-5-type" class="er entityLabel">String</text><rect height="22" width="61.934783935546875" y="112" x="54.095550537109375" class="er attributeBoxOdd"/><text style="dominant-baseline: middle; font-size: 10.2px;" transform="translate(59.095550537109375,123)" y="0" x="0" id="text-entity-exercises-2d0afcbb-1b45-4118-9add-6ddf9c27b4f9-attr-5-name" class="er entityLabel">video_link</text><rect height="22" width="22.68768310546875" y="112" x="116.03033447265625" class="er attributeBoxOdd"/><text style="dominant-baseline: middle; font-size: 10.2px;" transform="translate(121.03033447265625,123)" y="0" x="0" id="text-entity-exercises-2d0afcbb-1b45-4118-9add-6ddf9c27b4f9-attr-5-key" class="er entityLabel"/><rect height="22" width="54.095550537109375" y="134" x="0" class="er attributeBoxEven"/><text style="dominant-baseline: middle; font-size: 10.2px;" transform="translate(5,145)" y="0" x="0" id="text-entity-exercises-2d0afcbb-1b45-4118-9add-6ddf9c27b4f9-attr-6-type" class="er entityLabel">String</text><rect height="22" width="61.934783935546875" y="134" x="54.095550537109375" class="er attributeBoxEven"/><text style="dominant-baseline: middle; font-size: 10.2px;" transform="translate(59.095550537109375,145)" y="0" x="0" id="text-entity-exercises-2d0afcbb-1b45-4118-9add-6ddf9c27b4f9-attr-6-name" class="er entityLabel">description</text><rect height="22" width="22.68768310546875" y="134" x="116.03033447265625" class="er attributeBoxEven"/><text style="dominant-baseline: middle; font-size: 10.2px;" transform="translate(121.03033447265625,145)" y="0" x="0" id="text-entity-exercises-2d0afcbb-1b45-4118-9add-6ddf9c27b4f9-attr-6-key" class="er entityLabel"/><rect height="22" width="54.095550537109375" y="156" x="0" class="er attributeBoxOdd"/><text style="dominant-baseline: middle; font-size: 10.2px;" transform="translate(5,167)" y="0" x="0" id="text-entity-exercises-2d0afcbb-1b45-4118-9add-6ddf9c27b4f9-attr-7-type" class="er entityLabel">DateTime</text><rect height="22" width="61.934783935546875" y="156" x="54.095550537109375" class="er attributeBoxOdd"/><text style="dominant-baseline: middle; font-size: 10.2px;" transform="translate(59.095550537109375,167)" y="0" x="0" id="text-entity-exercises-2d0afcbb-1b45-4118-9add-6ddf9c27b4f9-attr-7-name" class="er entityLabel">created_ad</text><rect height="22" width="22.68768310546875" y="156" x="116.03033447265625" class="er attributeBoxOdd"/><text style="dominant-baseline: middle; font-size: 10.2px;" transform="translate(121.03033447265625,167)" y="0" x="0" id="text-entity-exercises-2d0afcbb-1b45-4118-9add-6ddf9c27b4f9-attr-7-key" class="er entityLabel"/></g><g transform="translate(552.111198425293,20 )" id="entity-exerciseweekdays-c6c129f8-fa5d-41d6-bce5-f2eef9e586ef"><rect height="68" width="139.09765625" y="0" x="0" class="er entityBox"/><text style="dominant-baseline: middle; text-anchor: middle; font-size: 12px;" transform="translate(69.548828125,12)" y="0" x="0" id="text-entity-exerciseweekdays-c6c129f8-fa5d-41d6-bce5-f2eef9e586ef" class="er entityLabel">exercise_week_days</text><rect height="22" width="44.6499989827474" y="24" x="0" class="er attributeBoxOdd"/><text style="dominant-baseline: middle; font-size: 10.2px;" transform="translate(5,35)" y="0" x="0" id="text-entity-exerciseweekdays-c6c129f8-fa5d-41d6-bce5-f2eef9e586ef-attr-1-type" class="er entityLabel">String</text><rect height="22" width="64.5060323079427" y="24" x="44.6499989827474" class="er attributeBoxOdd"/><text style="dominant-baseline: middle; font-size: 10.2px;" transform="translate(49.6499989827474,35)" y="0" x="0" id="text-entity-exerciseweekdays-c6c129f8-fa5d-41d6-bce5-f2eef9e586ef-attr-1-name" class="er entityLabel">id</text><rect height="22" width="29.941624959309895" y="24" x="109.1560312906901" class="er attributeBoxOdd"/><text style="dominant-baseline: middle; font-size: 10.2px;" transform="translate(114.1560312906901,35)" y="0" x="0" id="text-entity-exerciseweekdays-c6c129f8-fa5d-41d6-bce5-f2eef9e586ef-attr-1-key" class="er entityLabel">PK</text><rect height="22" width="44.6499989827474" y="46" x="0" class="er attributeBoxEven"/><text style="dominant-baseline: middle; font-size: 10.2px;" transform="translate(5,57)" y="0" x="0" id="text-entity-exerciseweekdays-c6c129f8-fa5d-41d6-bce5-f2eef9e586ef-attr-2-type" class="er entityLabel">Int</text><rect height="22" width="64.5060323079427" y="46" x="44.6499989827474" class="er attributeBoxEven"/><text style="dominant-baseline: middle; font-size: 10.2px;" transform="translate(49.6499989827474,57)" y="0" x="0" id="text-entity-exerciseweekdays-c6c129f8-fa5d-41d6-bce5-f2eef9e586ef-attr-2-name" class="er entityLabel">week_day</text><rect height="22" width="29.941624959309895" y="46" x="109.1560312906901" class="er attributeBoxEven"/><text style="dominant-baseline: middle; font-size: 10.2px;" transform="translate(114.1560312906901,57)" y="0" x="0" id="text-entity-exerciseweekdays-c6c129f8-fa5d-41d6-bce5-f2eef9e586ef-attr-2-key" class="er entityLabel"/></g><rect height="14" width="27.96875" y="154.47760009765625" x="77.06655883789062" class="er relationshipLabelBox"/><text style="text-anchor: middle; dominant-baseline: middle; font-size: 12px;" y="161.47760009765625" x="91.05093383789062" id="rel1" class="er relationshipLabel">habit</text><rect height="14" width="19.990234375" y="149.59597778320312" x="384.4106140136719" class="er relationshipLabelBox"/><text style="text-anchor: middle; dominant-baseline: middle; font-size: 12px;" y="156.59597778320312" x="394.4057312011719" id="rel2" class="er relationshipLabel">day</text><rect height="14" width="27.96875" y="140.47702026367188" x="220.4901580810547" class="er relationshipLabelBox"/><text style="text-anchor: middle; dominant-baseline: middle; font-size: 12px;" y="147.47702026367188" x="234.4745330810547" id="rel3" class="er relationshipLabel">habit</text><rect height="14" width="44.986328125" y="131" x="599.1668701171875" class="er relationshipLabelBox"/><text style="text-anchor: middle; dominant-baseline: middle; font-size: 12px;" y="138" x="621.6600341796875" id="rel4" class="er relationshipLabel">exercise</text></svg>